<?xml version="1.0" encoding="UTF-8" standalone="no"?> <svg id="Moon_Cloud" data-name="Moon Cloud" xmlns="http://www.w3.org/2000/svg" width="64" height="48" viewBox="0 0 64 48">
  <path id="Oval_83" data-name="Oval 83" d="M19.664,39.3A19.646,19.646,0,0,1,5.759,5.755,19.543,19.543,0,0,1,19.664,0,19.789,19.789,0,0,1,24,.479c-7.155,2-12.348,10.059-12.348,19.169S16.845,36.821,24,38.819A19.789,19.789,0,0,1,19.664,39.3Z" transform="translate(8)" fill="#3c566f"/>
  <path id="Rectangle_213" data-name="Rectangle 213" d="M10,36a10,10,0,1,1,0-20h2a6.005,6.005,0,0,1,6.809-5.946A10.006,10.006,0,0,1,33,5.338,14,14,0,0,1,57.735,16.721,10,10,0,0,1,54,36Z" transform="translate(0 12)" fill="#ecf0f1"/>
</svg>
