<?xml version="1.0" encoding="UTF-8" standalone="no"?>
<!-- Created with Inkscape (http://www.inkscape.org/) -->

<svg
   width="945"
   height="707"
   viewBox="0 0 250.03125 187.06042"
   version="1.1"
   id="svg5"
   inkscape:version="1.1.2 (b8e25be833, 2022-02-05)"
   sodipodi:docname="dibujo.svg"
   xmlns:inkscape="http://www.inkscape.org/namespaces/inkscape"
   xmlns:sodipodi="http://sodipodi.sourceforge.net/DTD/sodipodi-0.dtd"
   xmlns:xlink="http://www.w3.org/1999/xlink"
   xmlns="http://www.w3.org/2000/svg"
   xmlns:svg="http://www.w3.org/2000/svg">
  <sodipodi:namedview
     id="namedview7"
     pagecolor="#ffffff"
     bordercolor="#666666"
     borderopacity="1.0"
     inkscape:pageshadow="2"
     inkscape:pageopacity="0.0"
     inkscape:pagecheckerboard="0"
     inkscape:document-units="mm"
     showgrid="false"
     units="px"
     width="945px"
     height="707px"
     inkscape:zoom="0.24899341"
     inkscape:cx="1070.3095"
     inkscape:cy="92.371924"
     inkscape:window-width="1344"
     inkscape:window-height="729"
     inkscape:window-x="-255"
     inkscape:window-y="187"
     inkscape:window-maximized="0"
     inkscape:current-layer="layer1" />
  <defs
     id="defs2">
    <linearGradient
       inkscape:collect="always"
       id="linearGradient1049">
      <stop
         style="stop-color:#452668;stop-opacity:1"
         offset="0"
         id="stop1045" />
      <stop
         style="stop-color:#d84788;stop-opacity:1"
         offset="1"
         id="stop1047" />
    </linearGradient>
    <linearGradient
       inkscape:collect="always"
       xlink:href="#linearGradient1049"
       id="linearGradient1051"
       x1="70.379173"
       y1="184.90132"
       x2="201.62646"
       y2="38.558903"
       gradientUnits="userSpaceOnUse" />
  </defs>
  <g
     inkscape:label="Capa 1"
     inkscape:groupmode="layer"
     id="layer1">
    <path
       style="fill:url(#linearGradient1051);stroke-width:0.264583;fill-opacity:1"
       d="m 93.813322,186.81464 c -0.0798,-0.12903 0.0177,-0.36967 0.21666,-0.53475 0.19891,-0.16508 4.75174,-1.06652 10.117398,-2.00319 12.2121,-2.13185 11.50913,-1.99413 12.13699,-2.37771 0.29105,-0.1778 1.67308,-0.39712 3.07119,-0.48736 3.10518,-0.20044 3.89257,-0.36706 9.83005,-2.08016 3.2118,-0.92668 4.88669,-1.54222 5.29167,-1.94475 0.94905,-0.94333 4.93069,-2.80119 10.97461,-5.12083 8.35835,-3.20791 9.55512,-3.44982 18.06061,-3.65065 8.48584,-0.20038 9.2773,-0.0578 11.53633,2.07873 1.75694,1.66164 2.48773,3.42104 2.484,5.98031 -0.007,4.56752 -2.97386,6.91034 -10.28026,8.11694 -4.70039,0.77624 -5.92893,0.77622 -25.03903,-5.3e-4 -2.03729,-0.0828 -4.41854,-0.19541 -5.29166,-0.25025 -0.87313,-0.0548 -5.73256,-0.24571 -10.79873,-0.42416 l -9.21123,-0.32445 -5.07627,0.69101 c -2.79195,0.38018 -6.50503,0.81617 -8.25128,0.96899 -1.74625,0.15281 -4.306088,0.57236 -5.688538,0.93233 -2.65519,0.69137 -3.84382,0.8167 -4.08251,0.43048 z m -23.43415,-1.91332 C 67.815242,184.60778 62.600712,183.302 60.02431,182.30835 50.64113,178.68951 41.93114,171.448 32.62994,159.53258 22.83975,146.99075 12.62435,129.13223 4.20598,109.84196 3.02725,107.14094 0,99.757793 0,99.583983 c 0,-0.0345 1.33945,-0.48413 2.97656,-0.99918 11.08176,-3.48645 23.93905,-6.54719 36.97552,-8.802192 2.98318,-0.516019 5.44535,-0.95953 5.4715,-0.985578 0.0261,-0.02606 -0.14607,-1.236438 -0.3827,-2.689757 -0.62238,-3.822562 -0.60717,-14.724646 0.0266,-19.046562 1.06219,-7.243706 2.58916,-13.278474 4.98756,-19.711457 0.73243,-1.964531 1.3674,-3.61061 1.41104,-3.657952 0.16461,-0.178562 6.49409,0.546878 10.179682,1.166723 7.62111,1.281729 14.6542,3.482101 21.03917,6.582319 3.81378,1.851777 8.37358,4.688411 10.55971,6.56916 l 1.03735,0.892434 3.36005,-5.048739 C 103.59744,44.90474 111.93022,34.084711 119.94648,24.891113 l 4.00985,-4.59876 2.74578,2.87897 c 5.61695,5.88942 13.28313,14.944865 19.46064,22.987309 2.73458,3.560109 8.4307,11.541923 9.13582,12.801758 0.1545,0.276029 0.79846,-0.127556 2.6122,-1.637141 4.09721,-3.410109 8.1749,-5.881687 13.53924,-8.206433 7.81426,-3.38647 18.45221,-6.089641 25.91232,-6.584492 l 1.17379,-0.07786 1.0317,2.38125 c 3.10998,7.178043 5.41763,15.822104 6.4277,24.077082 0.52837,4.318183 0.53337,12.479888 0.01,16.271875 -0.2109,1.527968 -0.30334,2.846062 -0.20541,2.929098 0.0979,0.08303 2.11611,0.413962 4.48484,0.735397 8.74136,1.186185 20.43686,3.477527 29.42759,5.765357 4.19285,1.06693 10.09787,2.70784 10.24509,2.84695 0.0876,0.0828 -2.81541,7.717497 -4.48686,11.800277 -9.1871,22.44106 -20.23562,41.96576 -31.13784,55.02617 -10.91248,13.0727 -21.75251,19.45041 -35.11196,20.65806 -1.77441,0.1604 -3.92133,0.22988 -4.77096,0.1544 -0.84962,-0.0755 -1.77953,-0.14411 -2.06647,-0.15252 -0.28693,-0.008 0.30838,-0.41419 1.32292,-0.90176 1.83469,-0.8817 3.85482,-2.70694 4.20013,-3.79493 0.13908,-0.43819 0.63336,-0.60115 2.98627,-0.98453 8.05561,-1.31256 15.29007,-5.1063 22.2567,-11.67136 l 2.46306,-2.32108 -2.33077,-0.59499 c -1.28193,-0.32725 -5.00968,-1.54699 -8.2839,-2.71055 -9.58314,-3.40555 -15.45002,-4.73093 -23.68021,-5.34958 -8.0094,-0.60206 -17.53048,0.60511 -25.37238,3.21694 -1.73106,0.57654 -3.24274,0.95249 -3.35929,0.83543 -0.11655,-0.11705 -0.51246,-0.89296 -0.87978,-1.72424 l -0.66787,-1.51141 2.43966,-0.77846 c 6.26387,-1.99873 12.78506,-2.94559 20.28674,-2.94559 11.39053,0 20.15687,2.02345 32.68834,7.54514 3.70833,1.63399 9.07136,3.63315 9.4175,3.51054 0.40802,-0.14452 4.9965,-5.56285 7.19622,-8.49767 6.28175,-8.38101 12.23465,-18.37973 18.69306,-31.39759 5.17106,-10.42303 10.64878,-23.09701 10.1702,-23.53118 -0.29112,-0.26412 -10.44527,-2.846157 -16.10823,-4.096087 -12.67739,-2.79815 -25.51806,-4.72298 -36.38021,-5.45346 -4.39447,-0.29553 -17.26021,-0.28358 -17.55948,0.0163 -0.0773,0.0774 0.14752,1.27505 0.49954,2.66138 2.19545,8.645967 1.97155,17.283237 -0.65137,25.128187 -1.49328,4.46626 -3.20924,7.74817 -6.07812,11.62485 -1.66786,2.25377 -6.82425,7.67291 -7.30088,7.67291 -0.17316,0 -0.51204,-0.50201 -0.75306,-1.11559 l -0.43821,-1.11558 1.40987,-1.4641 c 5.64494,-5.86206 9.42011,-13.38784 10.67133,-21.27319 0.57733,-3.63846 0.38036,-10.96377 -0.38867,-14.454447 -0.5604,-2.54369 -1.75505,-6.82188 -1.96304,-7.02987 -0.2523,-0.25229 -6.28015,1.02445 -9.02282,1.91109 -8.96792,2.89914 -16.87161,8.728977 -21.61893,15.946347 -0.38903,0.59144 -0.45917,0.60452 -1.4058,0.26222 -1.62507,-0.58764 -1.62545,-0.75476 -0.007,-3.17875 6.26583,-9.385847 16.49717,-16.121327 28.31732,-18.641782 l 2.15315,-0.459126 -0.39374,-0.953503 c -1.07712,-2.60844 -4.45637,-9.328105 -6.40414,-12.734705 -6.8863,-12.043986 -19.02646,-28.295495 -31.46347,-42.118807 -2.31297,-2.570789 -2.85481,-3.045484 -3.17395,-2.780624 -0.57197,0.47469 -6.72473,7.796632 -9.61062,11.436885 -10.16289,12.819441 -19.780428,27.333137 -24.896418,37.570832 -1.457,2.915637 -4.16708,9.021878 -4.16708,9.389101 0,0.147498 0.28331,0.268179 0.62958,0.268179 1.9886,0 10.43174,2.701875 13.69213,4.381593 4.250068,2.18959 8.900618,5.63768 12.057608,8.939947 2.3413,2.44904 5.99068,7.48411 5.73006,7.90579 -0.0719,0.11631 -0.57445,0.43786 -1.11681,0.71456 l -0.98611,0.50307 -1.50434,-2.02821 c -5.20137,-7.0127 -13.13826,-12.432607 -21.731738,-14.840077 -2.9905,-0.83779 -7.94331,-1.73184 -8.31644,-1.50124 -0.30988,0.19152 -1.74019,5.41118 -2.29084,8.359977 -0.62126,3.32695 -0.78262,7.87189 -0.40864,11.50938 0.9275,9.02101 4.46932,16.86456 10.41633,23.0675 l 1.82241,1.90083 -0.37512,1.12534 c -0.20631,0.61894 -0.50564,1.16885 -0.66517,1.22202 -0.50393,0.16798 -6.21839,-5.77728 -8.07198,-8.39798 -7.24348,-10.24128 -9.44077,-23.81714 -6.0198,-37.193017 0.28836,-1.12748 0.52429,-2.07513 0.52429,-2.10589 0,-0.27752 -6.7956,-0.35633 -11.24479,-0.13041 -13.297902,0.67523 -28.475412,3.17818 -44.979162,7.4176 -4.22313,1.084817 -14.19051,3.912987 -14.34891,4.071387 -0.17271,0.17271 3.87772,9.01301 7.22524,15.76949 7.02784,14.1847 14.07804,26.01383 21.05195,35.32188 2.78153,3.7125 7.02314,8.74826 8.77167,10.41398 l 0.93317,0.88897 1.41261,-0.46009 c 2.06348,-0.67208 4.05601,-1.52373 8.98056,-3.83847 12.081592,-5.67884 21.470322,-7.91998 33.246572,-7.93614 6.7625,-0.009 9.92167,0.3386 16.070878,1.76967 1.60073,0.37253 2.99766,0.75701 3.10429,0.85441 0.10663,0.0974 -0.16208,0.92975 -0.59713,1.84967 -0.63603,1.34489 -0.88137,1.63715 -1.25221,1.4917 -1.3673,-0.53627 -7.786328,-2.02145 -10.528588,-2.43602 -4.88025,-0.73778 -15.95348,-0.6661 -20.62428,0.1335 -6.94753,1.18937 -11.39744,2.4875 -20.108322,5.86601 -2.91042,1.1288 -6.00604,2.25134 -6.87917,2.49454 -2.51536,0.70061 -2.41876,0.60727 -1.56336,1.51056 1.48909,1.57244 5.55984,4.84349 8.09794,6.5071 4.35902,2.85713 8.519992,4.52752 14.030572,5.63246 1.79875,0.36068 2.80768,0.69253 2.98277,0.9811 0.84081,1.38575 2.50907,2.82498 4.23901,3.65705 1.04606,0.50313 2.12755,0.91661 2.40333,0.91884 0.42057,0.003 0.43742,0.0454 0.10453,0.26053 -0.47521,0.3071 -5.94697,0.28751 -8.73125,-0.0313 z M 50.54641,88.239387 c 6.11746,-0.776676 10.603242,-1.044358 17.716092,-1.057182 4.00183,-0.0072 8.27992,0.04641 9.50689,0.119173 l 2.23085,0.132292 1.10095,-2.910417 c 2.30195,-6.085334 6.24536,-14.005204 10.59602,-21.280867 l 2.14671,-3.589965 -1.21519,-0.819644 C 84.465492,53.326676 70.336092,48.68875 57.67917,47.360698 56.1512,47.200373 54.57778,47.03439 54.18267,46.991842 c -0.69176,-0.07449 -0.76187,0.041 -1.89205,3.116612 -4.1442,11.277832 -6.60893,25.860601 -6.05867,35.846608 0.17149,3.112087 -0.28824,2.868684 4.31446,2.284325 z M 204.9228,86.21315 c 0.5071,-5.049586 -0.86882,-16.609168 -2.92514,-24.574999 -1.44834,-5.610632 -4.66484,-14.965174 -5.39968,-15.703875 -0.43377,-0.436038 -8.99734,0.949153 -14.69694,2.377287 -6.24029,1.563613 -13.60688,4.321177 -18.38854,6.88345 -2.59196,1.388914 -7.40833,4.522326 -7.40833,4.819678 0,0.110734 0.77549,1.420466 1.72331,2.91052 4.91935,7.733644 9.93064,17.493138 11.9394,23.252006 0.46168,1.323559 0.52243,1.382905 1.28232,1.252701 1.93555,-0.331647 8.35026,-0.656439 12.96851,-0.656624 5.30552,-2.12e-4 11.39251,0.329491 16.66875,0.902869 1.74625,0.189767 3.37128,0.361667 3.61117,0.382 0.35199,0.02983 0.47264,-0.326234 0.62517,-1.845013 z M 82.020832,184.40751 c -6.78234,-1.47133 -9.52499,-3.8787 -9.52499,-8.36057 0,-1.73517 1.22455,-4.26843 2.55317,-5.28182 2.16823,-1.65379 6.66367,-2.37404 13.50837,-2.16428 5.1395,0.1575 6.06845,0.27563 19.128038,2.43235 9.48919,1.56708 10.047,1.61898 12.60797,1.173 1.79741,-0.313 2.19325,-0.63179 3.95451,-3.18482 0.99038,-1.43559 2.43147,-2.20168 3.74165,-1.98907 0.5059,0.0821 1.87782,0.69204 3.04873,1.35543 l 2.12891,1.20616 3.06797,-0.25921 c 1.68738,-0.14257 4.13953,-0.44347 5.44922,-0.66867 1.30968,-0.2252 3.75176,-0.48408 5.42682,-0.5753 2.56814,-0.13985 3.09899,-0.10149 3.38629,0.24469 0.18739,0.22579 0.24563,0.4646 0.12942,0.5307 -0.11621,0.0661 -2.65207,0.92565 -5.63524,1.91013 -2.98318,0.98447 -5.60652,1.94813 -5.82964,2.14146 -0.84459,0.73179 -8.70537,4.35394 -11.36828,5.23837 -1.95206,0.64834 -3.64352,1.00403 -5.68854,1.19622 -1.60073,0.15044 -3.32714,0.39748 -3.83646,0.54897 -0.50932,0.1515 -5.0337,0.99337 -10.05417,1.87083 -5.02047,0.87746 -11.014448,1.94754 -13.319948,2.37796 -5.07163,0.94683 -9.30571,1.03151 -12.8738,0.25747 z m 29.236458,-14.28367 c -2.32833,-0.40485 -4.91468,-0.87767 -5.74744,-1.05071 l -1.51411,-0.3146 2.33486,-4.6791 c 1.28417,-2.57351 3.1493,-6.50302 4.14473,-8.73225 1.32523,-2.9678 2.01354,-4.19817 2.57044,-4.59472 1.07876,-0.76815 5.55147,-2.22363 9.6257,-3.13234 l 3.47668,-0.77544 4.84663,1.33961 c 6.30125,1.74167 7.11772,2.16188 7.11772,3.66328 0,1.03038 1.4635,4.87607 3.61185,9.491 1.24144,2.66676 2.19391,4.9119 2.11661,4.9892 -0.40965,0.40966 -6.42129,1.8867 -8.26102,2.02971 -2.13016,0.16558 -2.1377,0.1639 -2.91042,-0.64886 -1.499,-1.57668 -2.95486,-2.22287 -5.00806,-2.22287 -2.32834,0 -3.45434,0.63514 -4.84104,2.73071 -1.50628,2.27625 -2.30582,2.6984 -5.05382,2.66837 -1.25179,-0.0137 -4.18098,-0.35613 -6.50931,-0.76099 z M 92.607852,151.13169 c -1.24954,-0.6267 -1.64718,-1.47432 -1.45825,-3.10844 0.22054,-1.90766 1.35866,-5.97465 2.44337,-8.73125 2.2475,-5.7116 9.520708,-21.70406 10.542548,-23.18112 0.91702,-1.32553 2.68866,-2.19243 5.83701,-2.85616 6.96257,-1.46783 9.99143,-3.39341 11.09249,-7.05195 0.70691,-2.34888 0.3902,-4.86088 -1.0438,-8.278857 -0.76764,-1.82971 -0.93898,-2.03784 -2.40875,-2.92612 -2.03806,-1.23174 -2.30043,-1.88963 -1.5121,-3.791623 0.52032,-1.25536 0.54863,-1.55653 0.28629,-3.045827 -0.35614,-2.021861 -0.0279,-4.208119 0.95387,-6.352506 1.48395,-3.241378 3.54931,-4.790924 7.1682,-5.377965 2.20417,-0.357553 3.93624,0.02056 5.94683,1.298223 3.25599,2.069052 5.18686,7.235155 4.14381,11.086829 -0.36268,1.339276 -0.35531,1.398863 0.24257,1.960544 0.7397,0.694915 1.05097,2.079465 0.6401,2.847185 -0.16371,0.30589 -0.79969,0.80811 -1.41328,1.11605 -2.3674,1.1881 -3.33872,2.76806 -4.03672,6.566147 -0.77351,4.20904 -0.12843,7.00399 2.04615,8.86535 1.14874,0.98327 5.08928,2.3795 9.07702,3.21621 2.6357,0.55302 3.83285,1.14511 4.89284,2.41989 0.45555,0.54786 1.90474,3.31783 3.22042,6.15549 5.11697,11.03627 10.53781,23.28463 10.7908,24.38179 0.14591,0.63278 0.26821,1.83237 0.27176,2.66576 0.01,2.22451 -0.42603,2.44835 -4.30115,2.21061 -4.14484,-0.2543 -6.19715,-0.55632 -11.96425,-1.76066 -10.40259,-2.17238 -16.2646,-3.5964 -16.80029,-4.08119 -0.50482,-0.45686 -0.52908,-0.80037 -0.51222,-7.25159 0.0201,-7.69231 -0.11219,-7.66239 1.86533,-0.42201 0.59618,2.18281 1.2487,4.23073 1.45005,4.55093 0.69841,1.1107 3.86007,1.55248 12.92322,1.80577 5.12145,0.14313 6.00189,0.10593 7.47448,-0.3158 0.91807,-0.26293 1.66922,-0.56608 1.66922,-0.67369 0,-0.1076 -0.29815,-0.39099 -0.66254,-0.62975 -0.56433,-0.36976 -0.84469,-0.38825 -1.89131,-0.1247 -0.86803,0.21857 -1.31138,0.2268 -1.51014,0.028 -0.15474,-0.15474 -1.66233,-3.02726 -3.3502,-6.38337 l -3.06884,-6.10201 -1.7556,5.37749 c -0.96558,2.95763 -1.83327,5.70004 -1.9282,6.09426 -0.29693,1.23312 -0.60969,1.31397 -3.4389,0.88895 -1.4245,-0.214 -2.75884,-0.55792 -2.96519,-0.76427 -0.20635,-0.20636 -1.0009,-2.86135 -1.76567,-5.89998 -2.52813,-10.04508 -3.23216,-11.59248 -4.80531,-10.56172 -0.96268,0.63077 -1.23409,1.41887 -3.02732,8.7905 -0.87527,3.59809 -1.76761,6.8109 -1.98297,7.13958 -0.60223,0.91912 -1.1469,1.10211 -4.52918,1.52163 -2.4353,0.30206 -3.2078,0.31834 -3.44809,0.0727 -0.17032,-0.17413 -0.79812,-2.34067 -1.39512,-4.81452 -1.11029,-4.60085 -2.35636,-8.72705 -2.57075,-8.51266 -0.0659,0.0659 -1.4742,2.86613 -3.1295,6.22268 -2.89498,5.8703 -3.05732,6.1325 -4.26065,6.88148 l -1.251008,0.77864 1.046258,0.53377 c 1.49528,0.76283 4.63552,1.08913 9.35689,0.97228 4.6386,-0.11481 9.50673,-0.87887 10.57293,-1.65944 1.05152,-0.76981 1.50051,-1.93368 2.66985,-6.92067 0.59917,-2.55535 1.18197,-4.88421 1.2951,-5.17525 0.11314,-0.29104 0.18155,2.74505 0.15203,6.74688 -0.0295,4.00182 -0.13846,7.46766 -0.24207,7.70186 -0.26065,0.58911 -0.8948,0.84777 -4.39367,1.79212 -5.7384,1.5488 -13.95733,3.10048 -21.817128,4.11894 -3.97587,0.51519 -4.30396,0.51196 -5.43127,-0.0534 z m 45.945618,-1.03587 c -0.38881,-0.38881 -0.13275,-0.61694 0.68351,-0.60895 0.81338,0.008 0.83211,0.0294 0.3463,0.39687 -0.57035,0.4314 -0.76948,0.47241 -1.02981,0.21208 z M 44.44205,38.551901 c -1.58775,-0.802105 -2.3733,-2.027885 -2.3733,-3.703306 0,-2.29816 1.02234,-3.696851 3.22393,-4.410742 1.23761,-0.401312 2.76391,-0.02788 3.94377,0.964904 2.36627,1.991087 1.95597,5.679011 -0.79317,7.129295 -1.46363,0.772129 -2.50191,0.777277 -4.00123,0.01984 z m 157.18441,0.007 c -2.75269,-1.474403 -3.18306,-5.177604 -0.83166,-7.156177 2.91627,-2.453871 7.22876,-0.53581 7.22876,3.215124 0,3.42878 -3.41994,5.535694 -6.3971,3.941053 z M 123.56878,11.813273 c -1.32357,-0.42176 -3.33304,-2.4693806 -3.68464,-3.7546006 -0.6892,-2.51929 -0.18964,-4.56213 1.52171,-6.2227001 1.9759,-1.9172799 4.38494,-2.3497699 6.78478,-1.21805995 0.7276,0.34312 1.58341,0.90749995 1.9018,1.25417995 0.90209,0.9822501 1.65813,2.8942001 1.66167,4.2022101 0.004,1.36274 -0.92023,3.53866 -1.87481,4.4153396 -1.58767,1.458111 -4.18126,2.002121 -6.31051,1.323631 z"
       id="path111"
       sodipodi:nodetypes="cssssssssscssssccssccsssscscscssssscsscsssssscssssssssssscsssscsssssscsssssssssccsssscssssssscscsssssssssssscsssssscsscsssssssscsscssssssssssssscsccssscsscsssssssssssssssssssssssssssscssssssssssssssscsssscsssssssssssssssssssscsssssssssssscssssssssssssscsssscssssssssscssssssssssssssssssssssssssssssscss" />
  </g>
</svg>
